<svg viewBox="0 0 100 100" fill="none" xmlns="http://www.w3.org/2000/svg">
  <defs>
    <linearGradient id="g" x1="0" y1="0" x2="100" y2="100" gradientUnits="userSpaceOnUse">
      <stop offset="0%" stop-color="#7C3AED"/>
      <stop offset="100%" stop-color="#EC4899"/>
    </linearGradient>
  </defs>
  <rect width="100" height="100" rx="24" fill="url(#g)"/>
  <g transform="translate(13,13) scale(3.1)">
    <path d="M9.937 15.5A2 2 0 0 0 8.5 14.063l-6.135-1.582a.5.5 0 0 1 0-.962L8.5 9.936A2 2 0 0 0 9.937 8.5l1.582-6.135a.5.5 0 0 1 .963 0L14.063 8.5A2 2 0 0 0 15.5 9.937l6.135 1.581a.5.5 0 0 1 0 .964L15.5 14.063a2 2 0 0 0-1.437 1.437l-1.582 6.135a.5.5 0 0 1-.963 0z" fill="white"/>
    <line x1="20" y1="3" x2="20" y2="7" stroke="white" stroke-width="1.5" stroke-linecap="round"/>
    <line x1="18" y1="5" x2="22" y2="5" stroke="white" stroke-width="1.5" stroke-linecap="round"/>
    <line x1="4" y1="17" x2="4" y2="19" stroke="white" stroke-width="1.5" stroke-linecap="round"/>
    <line x1="3" y1="18" x2="5" y2="18" stroke="white" stroke-width="1.5" stroke-linecap="round"/>
  </g>
</svg>
